<svg preserveAspectRatio="none" width="100%" height="100%" overflow="visible" style="display: block;" viewBox="0 0 32 32" fill="none" xmlns="http://www.w3.org/2000/svg">
<g id="healtcare">
<path id="Vector" fill-rule="evenodd" clip-rule="evenodd" d="M16.6655 2.65945C16.3959 2.46715 16.0533 2.25832 15.6461 2.08193C14.526 1.59663 12.9406 1.37439 11.16 2.339C8.98419 3.51776 7.93997 6.23132 8.46888 8.98708C9.00818 11.7971 11.1477 14.6728 15.3237 16.5297C16.1763 16.9088 17.1548 16.9088 18.0073 16.5297C22.1833 14.6728 24.3228 11.7971 24.8621 8.98707C25.3909 6.23132 24.3467 3.51776 22.1709 2.33901C20.3903 1.37439 18.8049 1.59663 17.6848 2.08193C17.2777 2.25832 16.9352 2.46715 16.6655 2.65945Z" fill="var(--fill-0, #0F212B)"/>
<path id="Vector_2" d="M5.33333 17.6667C4.78105 17.6667 4.33333 18.1144 4.33333 18.6667V26.6932C4.33333 27.1407 4.63057 27.5337 5.06112 27.6555L13.3993 30.0143C14.2788 30.2631 15.2196 30.1744 16.0372 29.7656L26.1508 24.7088C27.1599 24.2043 27.6137 23.0107 27.1947 21.9632C26.4737 20.1607 24.4725 19.2325 22.6308 19.8464L19.3997 20.9235C19.698 21.5821 19.8393 22.2551 19.8393 22.8308C19.8393 23.206 19.5979 23.5387 19.2411 23.6548L14.0217 25.3544C13.574 25.5001 13.0915 25.4985 12.6448 25.3496L9.06159 24.1552C8.60751 24.0039 8.36209 23.5131 8.51345 23.0589C8.66483 22.6049 9.15563 22.3595 9.60972 22.5108L13.193 23.7052C13.2877 23.7368 13.3901 23.7372 13.4851 23.7063L18.0287 22.2267C17.9628 21.9557 17.8541 21.6709 17.7004 21.3941C17.2401 20.7217 16.5517 20.1572 15.7124 19.824C15.6755 19.8125 15.6399 19.7989 15.6055 19.7831C15.1145 19.6024 14.5744 19.5001 14 19.5001H12.9235L10.4155 18.1207C9.87409 17.8228 9.26621 17.6667 8.64832 17.6667H5.33333Z" fill="var(--fill-0, #0F212B)"/>
</g>
</svg>
