<svg preserveAspectRatio="none" width="100%" height="100%" overflow="visible" style="display: block;" viewBox="0 0 32 32" fill="none" xmlns="http://www.w3.org/2000/svg">
<g id="circle-check">
<path id="Vector" d="M30 15.6667C30 23.5828 23.5828 30 15.6667 30C7.75059 30 1.33333 23.5828 1.33333 15.6667C1.33333 7.75059 7.75059 1.33333 15.6667 1.33333C23.5828 1.33333 30 7.75059 30 15.6667ZM21.276 11.3906C20.7553 10.8699 19.9113 10.8699 19.3907 11.3906L13.6667 17.1145L11.276 14.724C10.7553 14.2032 9.91132 14.2032 9.39063 14.724C8.86992 15.2447 8.86992 16.0887 9.39063 16.6093L12.724 19.9427C13.2447 20.4635 14.0887 20.4635 14.6093 19.9427L21.276 13.276C21.7968 12.7553 21.7968 11.9113 21.276 11.3906Z" fill="var(--fill-0, #0F212B)"/>
</g>
</svg>
