<svg preserveAspectRatio="none" width="100%" height="100%" overflow="visible" style="display: block;" viewBox="0 0 16 16" fill="none" xmlns="http://www.w3.org/2000/svg">
<g id="paypal">
<path id="Vector" d="M4.62433 1.56347L2.09407 12.9017C2.0476 13.11 2.20603 13.3077 2.41941 13.3077H5.06578C5.2227 13.3077 5.35837 13.1982 5.39157 13.0449L6.34915 8.62133H8.5714C9.005 8.62133 9.44127 8.5616 9.8366 8.3844C11.9261 7.44773 12.484 5.78747 12.7007 4.89631C12.9789 3.08991 11.9648 2.02431 10.6671 1.56027C10.2955 1.4274 9.89787 1.39418 9.50313 1.38688L4.95582 1.30279C4.79741 1.29986 4.65883 1.40884 4.62433 1.56347Z" fill="var(--fill-0, #97A4AC)"/>
<path id="Vector_2" d="M4.56638 14.3073L4.51507 14.5115C4.47753 14.6609 4.51098 14.8193 4.60572 14.9408C4.70047 15.0623 4.84593 15.1333 5.00001 15.1333H7.7104C7.94033 15.1333 8.1406 14.9765 8.1958 14.7533L9.07973 11.1765C11.9331 11.3914 13.6223 10.2426 14.2413 8.68207C14.7321 7.44487 14.5049 5.98697 13.6863 5.05729C13.6822 5.08246 13.6771 5.10746 13.6711 5.13225C13.4231 6.15211 12.745 8.17553 10.2443 9.29653C9.6772 9.55073 9.0882 9.621 8.57007 9.621H7.15453L6.36763 13.2561C6.23483 13.8695 5.69215 14.3073 5.06448 14.3073H4.56638Z" fill="var(--fill-0, #97A4AC)"/>
</g>
</svg>
